<svg viewBox="0 0 500 500" xmlns="http://www.w3.org/2000/svg"><g transform="translate(0 -552.362)"><rect height="500" rx="250" ry="250" width="500" y="552.362" fill="#537599"/><path style="fill: #fff" d="M261.277 712.094c-17.03.08-27.89.1-43.2.1-12.806 0-19.998 5.184-20.226 8.276-.21 2.826 6.326 5.112 10.3 7.4 3.836 2.378 7.3 9.926 7.3 15.025v44.476c0 4.227-.96 7.17-4.375 9.926-1.627 1.312-3.56 1.661-5.65 1.65-1.691-.01-3.992-.326-5.575-2.376-16.867-21.833-16.923-24.529-40.551-68.526-1.146-2.134-2.279-4.398-4.625-6.1-2.347-1.703-5.825-2.825-11.4-2.825-18.993 0-30.714.275-43.202.275-11.82 0-10.683 7.248-9.1 10.55 14.171 29.55 28.56 57.764 45.101 86.402 19.37 33.538 37.08 53.682 66.877 68.152 6.916 3.358 19.387 6.825 33.8 6.825h30.626c3.935 0 10.476-3.105 10.476-7.275v-22.976c0-6.57 6.551-8.96 10.125-10.575 4.21-1.903 8.626 1.097 10.85 3.475 17.122 18.303 15.176 16.312 30.776 32.7 3.525 3.704 6.187 5.651 12.85 5.651 44.994 0 45.032.086 55.777 0 2.95-.024 7.332-4.45 8.3-6.175 1.278-2.278 4.184-10.407-.475-15.676-15.812-17.88-31.93-34.251-47.376-50.5-1.178-1.24-2.068-2.917-2.1-4.626-.036-1.869 1.007-3.683 2.1-5.2 17.324-24.047 31.635-44.409 47.201-69.702 5.06-8.222 4.405-14.045 3.475-16.05-1.077-2.323-4.394-5.53-8.2-5.55-20.787-.117-29.778-.408-51.951-.376-6.623.01-12.49-.498-16.126 7.476-9.745 21.367-25.645 53.972-39.45 67.526-2.55 2.502-5.955 4.36-8.926 4.376-2.972.014-6.131-2.01-6.575-6.85-.34-23.256-.057-43.096-.175-65.877-.036-6.964-2.973-8.756-5.2-10.3-3.023-2.097-7.798-2.743-11.476-2.726z" fill="#fff"/></g></svg>